<?xml version="1.0" encoding="utf-8"?>
<!-- Generator: Adobe Illustrator 19.0.0, SVG Export Plug-In . SVG Version: 6.00 Build 0)  -->
<!DOCTYPE svg PUBLIC "-//W3C//DTD SVG 1.1//EN" "http://www.w3.org/Graphics/SVG/1.1/DTD/svg11.dtd">
<svg version="1.1" id="Layer_1" xmlns="http://www.w3.org/2000/svg" xmlns:xlink="http://www.w3.org/1999/xlink" x="0px" y="0px"
	 viewBox="-455.1 251 100 100" style="enable-background:new -455.1 251 100 100;" xml:space="preserve">
<path d="M-355.6,289.8l-21.5-21.5c-0.3-0.3-0.7-0.5-1.2-0.5c-0.4,0-0.9,0.2-1.2,0.5l-8.7,8.7c-0.3,0.3-0.5,0.7-0.5,1.2
	c0,0.4,0.2,0.9,0.5,1.2l1.1,1.1c-0.7,0.4-1.6,0.7-2.4,0.7c-1.2,0-2.3-0.4-3.2-1.3c-1.5-1.5-3.4-2.2-5.5-2.2c-2,0-4,0.9-5.5,2.2
	l-1.1,1.1l-1.7-1.7c-1.5-1.5-3.4-2.2-5.5-2.2s-4,0.9-5.5,2.2c-0.9,0.9-2,1.3-3.2,1.3c-0.9,0-1.7-0.2-2.4-0.7l1.1-1.1
	c0.6-0.6,0.6-1.7,0-2.3l-8.7-8.7c-0.3-0.3-0.7-0.5-1.2-0.5c-0.4,0-0.9,0.2-1.2,0.5l-21.5,21.5c-0.6,0.6-0.6,1.7,0,2.3l4,4
	c1.6,1.6,3.6,2.4,5.8,2.4c1.7,0,3.2-0.5,4.6-1.4l9.9,9.9l-1.2,1.2c-2.2,2.2-2.2,5.8,0,8.1c1.1,1.1,2.6,1.7,4.1,1.7l0,0
	c0,1.5,0.6,3,1.7,4c1.1,1.1,2.6,1.7,4.1,1.7c0,1.5,0.5,3,1.7,4.1c1.1,1.1,2.6,1.7,4.1,1.7c0,1.5,0.5,3,1.7,4.1
	c1.1,1.1,2.6,1.7,4,1.7c1.5,0,3-0.6,4-1.7l1.2-1.2l1.8,1.8c1.1,1.1,2.6,1.7,4,1.7c1.5,0,3-0.6,4-1.7c1.2-1.2,1.7-2.7,1.7-4.1
	c0,0,0,0,0.1,0c1.5,0,3-0.6,4-1.7c1.1-1.1,1.7-2.6,1.7-4l0,0l0,0c1.5,0,3-0.6,4-1.7c1.2-1.2,1.7-2.7,1.7-4.1l0,0c1.5,0,3-0.6,4-1.7
	c2.2-2.2,2.2-5.8,0-8.1l-1.8-1.8l9.2-9.2c1.4,0.9,2.9,1.4,4.6,1.4c2.2,0,4.3-0.9,5.8-2.4l4-4c0.3-0.3,0.5-0.7,0.5-1.2
	C-355.1,290.5-355.3,290.1-355.6,289.8z M-369,293.8l-14.5-14.5l0,0l-1.1-1.1l6.4-6.4l19.1,19.1l-2.9,2.9c-1,1-2.2,1.5-3.5,1.5
	C-366.7,295.3-368,294.8-369,293.8z M-379.8,313.9c-0.4,0.4-1.1,0.7-1.7,0.7s-1.3-0.2-1.7-0.7l-1.8-1.8l-1.2-1.2l-1.2-1.2l-2.9-2.9
	c-1-1-1-2.6,0-3.4c0.4-0.4,1.1-0.7,1.7-0.7s1.3,0.2,1.7,0.7l2.9,2.9l1.2,1.2l1.2,1.2l1.8,1.8C-378.9,311.5-378.9,313.1-379.8,313.9z
	 M-385.5,319.8c-0.4,0.4-1.1,0.7-1.7,0.7s-1.3-0.2-1.7-0.7l-1.8-1.8l-1.2-1.2l-1.2-1.2l-2.9-2.9c-1-1-1-2.6,0-3.4
	c0.4-0.4,1.1-0.7,1.7-0.7s1.3,0.2,1.7,0.7l2.9,2.9l1.2,1.2l1.2,1.2l1.8,1.8C-384.6,317.2-384.6,318.8-385.5,319.8z M-390.6,323.8
	c0,0.6-0.2,1.3-0.7,1.7c-0.5,0.4-1.1,0.7-1.7,0.7s-1.3-0.2-1.7-0.7l-1.8-1.8l-1.2-1.2l-1.2-1.2l-2.9-2.9l0,0
	c-0.4-0.4-0.7-1.1-0.7-1.7s0.2-1.3,0.7-1.7c0.4-0.4,1.1-0.7,1.7-0.7c0.6,0,1.3,0.2,1.7,0.7l2.9,2.9l1.2,1.2l1.2,1.2l1.8,1.8l0,0
	C-390.9,322.5-390.6,323.2-390.6,323.8z M-397.1,331.4c-0.4,0.4-1.1,0.7-1.7,0.7s-1.3-0.2-1.7-0.7l-1.8-1.8l-1.2-1.2l-1.2-1.2
	l-2.9-2.9c-1-1-1-2.6,0-3.4c0.4-0.4,1.1-0.7,1.7-0.7s1.3,0.2,1.7,0.7l2.9,2.9l1.2,1.2l1.2,1.2l1.8,1.8
	C-396.2,328.8-396.2,330.4-397.1,331.4z M-384.4,301.2c-1.1-1.1-2.6-1.7-4-1.7c-1.5,0-3,0.6-4,1.7c-1.2,1.2-1.7,2.7-1.7,4.1
	c0,0,0,0-0.1,0c-1.5,0-3,0.6-4,1.7c-1.2,1.2-1.7,2.7-1.7,4.1c0,0,0,0-0.1,0c-1.5,0-3,0.6-4,1.7c-1.1,1.1-1.7,2.6-1.7,4l0,0l0,0
	c-1.5,0-3,0.6-4,1.7c-2.2,2.2-2.2,5.8,0,8.1l2.9,2.9l-1.2,1.2c-0.4,0.4-1.1,0.7-1.7,0.7s-1.3-0.2-1.7-0.7c-1-1-1-2.6,0-3.4
	c0.3-0.3,0.5-0.7,0.5-1.2c0-0.4-0.2-0.9-0.5-1.2c-0.6-0.6-1.7-0.6-2.3,0c-0.4,0.4-1.1,0.7-1.7,0.7s-1.3-0.2-1.7-0.7
	c-0.4-0.4-0.7-1.1-0.7-1.7c0-0.6,0.2-1.3,0.7-1.7c0.3-0.3,0.5-0.7,0.5-1.2s-0.2-0.9-0.5-1.2c-0.6-0.6-1.7-0.6-2.3,0
	c-0.4,0.4-1.1,0.7-1.7,0.7s-1.3-0.2-1.7-0.7c-1-1-1-2.6,0-3.4c0.3-0.3,0.5-0.7,0.5-1.2c0-0.4-0.2-0.9-0.5-1.2
	c-0.6-0.6-1.7-0.6-2.3,0c-0.4,0.4-1.1,0.7-1.7,0.7s-1.3-0.2-1.7-0.7c-1-1-1-2.6,0-3.4l2.3-2.3l0,0l0,0l11.8-11.8
	c0.6-0.4,1.4-0.7,2.2-0.7c1.1,0,1.9,0.4,2.7,1.1l5.1,5.1c1.5,1.5,3.4,2.2,5.5,2.2l0,0c2,0,4-0.7,5.4-2.2l3.6-3.6
	c0.3-0.3,0.5-0.7,0.5-1.2c0-0.4-0.2-0.9-0.5-1.2l-12.1-12.1l1.1-1.1c0.9-0.9,2-1.3,3.2-1.3c1.2,0,2.3,0.4,3.2,1.3
	c1.5,1.5,3.4,2.2,5.5,2.2c1.8,0,3.4-0.5,4.8-1.6l12.2,12.2l-9.1,9.1L-384.4,301.2z M-417.6,293.8l-10.2,10.2l-9.7-9.7l12.2-12.2
	c1.4,1.1,3,1.7,4.8,1.7c2.1,0,4-0.9,5.5-2.2c0.9-0.9,2-1.3,3.2-1.3s2.3,0.4,3.2,1.3l1.7,1.7l1.2,1.2l1.2,1.2l10.9,10.9l-2.4,2.4
	c-0.9,0.9-1.9,1.3-3.2,1.3l0,0c-1.2,0-2.3-0.4-3.2-1.3l-5.1-5.1c-1-1-2.1-1.6-3.4-1.9c-0.5-0.1-1.1-0.2-1.6-0.2c-0.2,0-0.3,0-0.5,0
	c-1.4,0.1-2.8,0.6-3.8,1.5C-417.2,293.4-417.4,293.6-417.6,293.8z M-444.5,294.7c-1.3,0-2.6-0.5-3.5-1.5l-2.9-2.9l19.1-19.1l6.4,6.4
	l-1.2,1.2l0,0l-14.5,14.5C-441.9,294.2-443.1,294.7-444.5,294.7z"/>
</svg>
