<?xml version="1.0" encoding="utf-8"?>
<!-- Generator: Adobe Illustrator 19.0.0, SVG Export Plug-In . SVG Version: 6.00 Build 0)  -->
<!DOCTYPE svg PUBLIC "-//W3C//DTD SVG 1.1//EN" "http://www.w3.org/Graphics/SVG/1.1/DTD/svg11.dtd">
<svg version="1.1" id="Layer_1" xmlns="http://www.w3.org/2000/svg" xmlns:xlink="http://www.w3.org/1999/xlink" x="0px" y="0px"
	 viewBox="-472.2 251.3 123.2 100" style="enable-background:new -472.2 251.3 123.2 100;" xml:space="preserve">
<g>
	<path d="M-349.7,269.8l-15.5-15.5c-0.9-0.9-2.6-0.9-3.5,0l-9.7,9.7c-0.8-2.6-3.1-4.5-6-4.5h-58.4c-3.4,0-6.2,2.8-6.2,6.2v46.5
		c0,3.4,2.8,6.2,6.2,6.2h10l-3,3l0,0l-0.1,0.1c-0.1,0.1-0.1,0.2-0.2,0.2c-0.1,0.1-0.1,0.2-0.2,0.3c-0.1,0.1-0.1,0.2-0.1,0.3v0.1
		l-7.8,23.3c-0.3,0.9-0.1,1.9,0.6,2.5c0.5,0.5,1.1,0.7,1.7,0.7c0.3,0,0.5,0,0.8-0.1l23.3-7.8c0,0,0,0,0.1,0c0.2-0.1,0.3-0.1,0.5-0.2
		l0,0c0.1-0.1,0.3-0.2,0.4-0.3l22.1-22.1h10.4c3.4,0,6.2-2.8,6.2-6.2v-10.4l15-15c0.1-0.1,0.3-0.3,0.4-0.5l13-13
		C-348.8,272.3-348.8,270.8-349.7,269.8z M-383,312.2c0,0.7-0.6,1.3-1.3,1.3h-5.5l6.8-6.8V312.2z M-380.5,273.1l4.4,4.4l-50.1,50.1
		l-4.4-4.4L-380.5,273.1z M-444.1,312.2v-46.5c0-0.7,0.6-1.3,1.3-1.3h58.4c0.7,0,1.3,0.6,1.3,1.3v2.9l-44.8,44.9h-14.9
		C-443.5,313.5-444.1,312.9-444.1,312.2z M-438,342.7l4.9-14.8l9.9,9.9L-438,342.7z M-382.3,299L-382.3,299l-2.7,2.7l-33.6,33.6
		l-4.1-4.1l50.1-50.1l4.1,4.1L-382.3,299z M-364.9,281.5l-12-12l10-10l12,12L-364.9,281.5z"/>
	<path d="M-426.1,278.5c0-0.7-0.3-1.3-0.7-1.7l-5.9-5.9c-1-1-2.5-1-3.5,0s-1,2.5,0,3.5l4.2,4.2l-4.2,4.2c-1,1-1,2.5,0,3.5
		c0.5,0.5,1.1,0.7,1.7,0.7s1.3-0.2,1.7-0.7l5.9-5.9C-426.4,279.8-426.1,279.2-426.1,278.5z"/>
	<path d="M-422.5,286.9h7c1.4,0,2.5-1.1,2.5-2.5s-1.1-2.5-2.5-2.5h-7c-1.4,0-2.5,1.1-2.5,2.5S-423.9,286.9-422.5,286.9z"/>
</g>
</svg>
