<?xml version="1.0" encoding="utf-8"?>
<!-- Generator: Adobe Illustrator 19.0.0, SVG Export Plug-In . SVG Version: 6.00 Build 0)  -->
<!DOCTYPE svg PUBLIC "-//W3C//DTD SVG 1.1//EN" "http://www.w3.org/Graphics/SVG/1.1/DTD/svg11.dtd">
<svg version="1.1" id="Layer_1" xmlns="http://www.w3.org/2000/svg" xmlns:xlink="http://www.w3.org/1999/xlink" x="0px" y="0px"
	 viewBox="-429.4 251.4 100 100" style="enable-background:new -429.4 251.4 100 100;" xml:space="preserve">
<g>
	<path d="M-415.6,314c3.3,0,6,2.7,6,6c0,3.3-2.7,6-6,6c-3.3,0-6-2.7-6-6C-421.5,316.7-418.9,314-415.6,314 M-415.6,310.9
		c-5,0-9.1,4.1-9.1,9.1c0,5,4.1,9.1,9.1,9.1c5.1-0.1,9.1-4.1,9.1-9.1C-406.5,314.9-410.5,310.9-415.6,310.9L-415.6,310.9z"/>
	<path d="M-405.1,345.5h-3.1v-7.6c0-4-3.3-7.3-7.3-7.3s-7.3,3.2-7.3,7.3v7.6h-3.1v-7.6c0-5.8,4.7-10.4,10.4-10.4
		c5.7,0,10.4,4.7,10.4,10.4L-405.1,345.5L-405.1,345.5z"/>
</g>
<g>
	<path d="M-391.5,314c3.3,0,6,2.7,6,6c0,3.3-2.7,6-6,6c-3.4,0-6-2.7-6-6C-397.5,316.7-394.8,314-391.5,314 M-391.5,310.9
		c-5,0-9.1,4.1-9.1,9.1c0,5,4.1,9.1,9.1,9.1c5,0,9.1-4.1,9.1-9.1C-382.4,314.9-386.5,310.9-391.5,310.9L-391.5,310.9z"/>
	<path d="M-381.1,345.5h-3.1v-7.6c0-4-3.3-7.3-7.3-7.3s-7.3,3.3-7.3,7.3v7.6h-3.1v-7.6c0-5.8,4.7-10.4,10.4-10.4
		c5.7,0,10.4,4.7,10.4,10.4V345.5z"/>
</g>
<g>
	<path d="M-367.5,314c3.3,0,6,2.7,6,6c0,3.3-2.7,6-6,6c-3.3,0-6-2.7-6-6C-373.5,316.7-370.7,314-367.5,314 M-367.5,310.9
		c-5,0-9.1,4.1-9.1,9.1c0,5,4.1,9.1,9.1,9.1c5,0,9.1-4.1,9.1-9.1C-358.3,314.9-362.5,310.9-367.5,310.9L-367.5,310.9z"/>
	<path d="M-357.1,345.5h-3.1v-7.6c0-4-3.3-7.3-7.3-7.3s-7.3,3.3-7.3,7.3v7.6h-3.1v-7.6c0-5.8,4.7-10.4,10.4-10.4
		c5.7,0,10.4,4.7,10.4,10.4V345.5z"/>
</g>
<g>
	<path d="M-343.4,314c3.3,0,6,2.7,6,6c0,3.3-2.7,6-6,6c-3.3,0-6-2.7-6-6C-349.4,316.7-346.7,314-343.4,314 M-343.4,310.9
		c-5,0-9.1,4.1-9.1,9.1c0,5,4.1,9.1,9.1,9.1c5,0,9.1-4.1,9.1-9.1C-334.3,314.9-338.4,310.9-343.4,310.9L-343.4,310.9z"/>
	<path d="M-333,345.5h-3.1v-7.6c0-4-3.3-7.3-7.3-7.3s-7.3,3.3-7.3,7.3v7.6h-3.1v-7.6c0-5.8,4.7-10.4,10.4-10.4
		c5.7,0,10.4,4.7,10.4,10.4V345.5z"/>
</g>
<g>
	<path d="M-374.1,261.8V306h-45.4v-44.2L-374.1,261.8 M-373.7,258.7h-46.2c-1.6,0-2.7,1.2-2.7,2.7v45c0,1.5,1.2,2.7,2.7,2.7h46.2
		c1.5,0,2.7-1.2,2.7-2.7v-45C-371,260-372.2,258.7-373.7,258.7L-373.7,258.7z"/>
	<g>
		<path d="M-345.5,277.7c3.3,0,6,2.7,6,6c0,3.3-2.7,6-6,6c-3.4,0-6-2.7-6-6C-351.4,280.4-348.8,277.7-345.5,277.7 M-345.5,274.5
			c-5,0-9.1,4.1-9.1,9.1c0,5,4.1,9.1,9.1,9.1s9.1-4.1,9.1-9.1C-336.4,278.7-340.4,274.5-345.5,274.5L-345.5,274.5z"/>
		<path d="M-335,309.2h-3.1v-7.6c0-4-3.3-7.3-7.3-7.3c-1.9,0-3.9,0.9-5.3,2.3l-2.3-2.2c1.9-2,4.7-3.3,7.6-3.3
			c5.8,0,10.4,4.7,10.4,10.4L-335,309.2L-335,309.2z"/>
		<polygon points="-351.6,297.3 -359.9,289.9 -357.9,287.6 -350.5,294.1 -351.2,294.9 -350.2,296.1 		"/>
		<path d="M-352.7,309.2h-3.1v-7.6c0-0.4,0-0.8,0.1-1.2l-13.4-11.7c-1.4-1.2-1.6-3.3-0.5-4.8l0.3-0.5c0.6-0.9,2-1.8,3.4-1.9
			c0.8-0.1,1.5,0.2,2,0.7l6.1,5.4l-2.1,2.3l-5.9-5.2c-0.3,0.1-0.8,0.4-1,0.6l-0.3,0.5c-0.2,0.2-0.1,0.4,0.1,0.5l14.7,12.9l-0.2,0.9
			c-0.1,0.5-0.2,0.9-0.2,1.4L-352.7,309.2z"/>
	</g>
</g>
</svg>
