<?xml version="1.0" encoding="utf-8"?>
<!-- Generator: Adobe Illustrator 19.0.0, SVG Export Plug-In . SVG Version: 6.00 Build 0)  -->
<!DOCTYPE svg PUBLIC "-//W3C//DTD SVG 1.1//EN" "http://www.w3.org/Graphics/SVG/1.1/DTD/svg11.dtd">
<svg version="1.1" id="Layer_1" xmlns="http://www.w3.org/2000/svg" xmlns:xlink="http://www.w3.org/1999/xlink" x="0px" y="0px"
	 viewBox="-459.2 250.8 100 100" style="enable-background:new -459.2 250.8 100 100;" xml:space="preserve">
<g>
	<path d="M-364.6,309.8c0-4.7-8-7.2-15.4-7.2c-7.6,0-15.4,2.6-15.7,7.1c-0.2,0.2-0.3,0.4-0.3,0.7v2.8c-3.1-1.9-8.1-2.9-13-2.9
		c-8.1,0-16.4,2.8-16.4,7.6c0,0.1,0,0.2,0,0.4c0,0.1,0,0.2,0,0.3v3c-3-2-8.2-3.1-13.2-3.1c-8,0-16.2,2.8-16.2,7.6c0,0.1,0,0.2,0,0.3
		c0,0.1,0,0.2,0,0.3v6.8c0,4.8,8.3,7.3,16.2,7.3c5.8,0,11.9-1.4,14.7-4.2c2.7,2.7,8.9,4.2,14.7,4.2s11.9-1.4,14.6-4.2
		c2.6,2.7,8.5,4.1,14.3,4.1c8.9,0,15.7-3.2,15.7-7.5v-6.6c0-0.2,0-0.4-0.1-0.6c0.1-0.3,0.1-0.6,0.1-0.9v-6.6c0-0.2,0-0.4-0.1-0.6
		c0.1-0.3,0.1-0.6,0.1-0.9v-6.6c0-0.1,0-0.2,0-0.3C-364.6,310-364.6,309.9-364.6,309.8z M-367.6,325.1c0,1.8-5,4.5-12.7,4.5
		c-7.8,0-12.7-2.5-12.7-4.3v-0.1v-3.4c3,1.8,7.9,2.8,12.7,2.8c5.4,0,9.8-1.1,12.7-2.9V325.1z M-422.4,322.3
		c3.1,1.9,8.3,2.8,13.4,2.8c4.9,0,9.9-1,13-2.9v2.9c0,1.8-5.6,4.5-13.2,4.5c-7.9,0-13.2-2.5-13.2-4.3V322.3z M-367.6,317
		c0,1.8-5,4.5-12.7,4.5c-7.8,0-12.7-2.5-12.7-4.3v-3c3,1.9,8,2.8,13,2.8c4.7,0,9.4-1,12.4-2.8V317z M-380,305.5
		c7.6,0,12.5,2.5,12.5,4.3s-4.9,4.3-12.5,4.3c-7.7,0-12.8-2.4-12.8-4.2C-392.9,308.2-387.5,305.5-380,305.5z M-409,313.3
		c7.9,0,13,2.6,13,4.4s-5.1,4.4-13,4.4c-8,0-13.4-2.5-13.4-4.3C-422.4,316-416.8,313.3-409,313.3z M-438.6,321.4
		c7.8,0,12.9,2.6,12.9,4.4s-5,4.4-12.9,4.4s-13.2-2.5-13.2-4.3C-451.8,324.2-446.2,321.4-438.6,321.4z M-438.6,337.7
		c-7.9,0-13.2-2.5-13.2-4.3v-3c3.1,1.9,8.2,2.8,13.2,2.8c5,0,10.1-1.1,13.2-3.1v3.1C-425.4,335-430.7,337.7-438.6,337.7z
		 M-409.2,337.7c-7.9,0-13.2-2.5-13.2-4.3v-0.1v-3.6c3.1,1.9,8.2,2.9,13.2,2.9s10-1.1,13.2-3v3.6C-396,335-401.3,337.7-409.2,337.7z
		 M-380.3,337.7c-7.8,0-12.7-2.5-12.7-4.3v-0.1v-3.4c3,1.8,7.9,2.8,12.7,2.8c5.4,0,9.8-1.1,12.7-2.9v3.5
		C-367.6,335-372.6,337.7-380.3,337.7z"/>
	<path d="M-364,268.6c0-0.1,0-0.2,0-0.4c0-0.1-0.1-0.3-0.1-0.4s-0.1-0.2-0.1-0.3c-0.1-0.2-0.1-0.3-0.2-0.4c0-0.1-0.1-0.2-0.1-0.3
		c-0.1-0.2-0.3-0.4-0.5-0.6l0,0l-0.1-0.1c-0.1-0.2-0.3-0.3-0.5-0.4c-0.1-0.1-0.2-0.1-0.3-0.2c-0.1-0.1-0.3-0.2-0.4-0.2
		c-0.1-0.1-0.2-0.1-0.3-0.1c-0.1-0.1-0.3-0.1-0.4-0.1c-0.1,0-0.2-0.1-0.4-0.1c-0.1,0-0.2,0-0.2-0.1l-10.9-1.5
		c-2.2-0.3-4.4,1.3-4.7,3.5c-0.3,2.2,1.3,4.4,3.5,4.7l2,0.3l-21.7,19.1l-16.3-10.6c-1.5-1-3.4-0.9-4.9,0.2l-31.1,24.3
		c-1.8,1.4-2.1,4.1-0.7,5.8c0.8,1,2,1.6,3.2,1.6c0.9,0,1.8-0.3,2.5-0.9l28.8-22.5l16.5,10.8c1.5,1,3.6,0.9,5.1-0.4l23.9-21.2v2
		c0,2.3,1.8,4.2,4.2,4.2c2.3,0,4.2-1.8,4.2-4.2v-11.1C-364,268.8-364,268.7-364,268.6z"/>
</g>
</svg>
