<?xml version="1.0" encoding="utf-8"?>
<!-- Generator: Adobe Illustrator 19.0.0, SVG Export Plug-In . SVG Version: 6.00 Build 0)  -->
<!DOCTYPE svg PUBLIC "-//W3C//DTD SVG 1.1//EN" "http://www.w3.org/Graphics/SVG/1.1/DTD/svg11.dtd">
<svg version="1.1" id="Layer_1_copy_2" xmlns="http://www.w3.org/2000/svg" xmlns:xlink="http://www.w3.org/1999/xlink" x="0px"
	 y="0px" viewBox="5387 -3968.2 5054.5 5165" style="enable-background:new 5387 -3968.2 5054.5 5165;" xml:space="preserve">
<style type="text/css">
	.st0{fill:#E7EDEA;}
	.st1{fill:#F90606;}
</style>
<g>
	<circle class="st0" cx="7066.5" cy="-1909.1" r="26.3"/>
	<circle class="st0" cx="7066.5" cy="-1748.8" r="26.3"/>
	<circle class="st0" cx="8612.1" cy="-1588.5" r="26.3"/>
	<circle class="st0" cx="7066.5" cy="-1588.5" r="26.3"/>
	<circle class="st0" cx="8612.1" cy="-1748.8" r="26.3"/>
	<path class="st0" d="M9955.5-1763.6L8790-3224.9c-5.3-7.4-14.7-11.6-24.2-11.6H6896c-9.5,0-17.9,4.2-24.2,11.6L5707.3-1763.6
		c-6.3,7.4-8.4,16.8-6.3,26.3L6116.9,86.2c2.1,9.5,8.4,16.8,16.8,21.1L7818.2,918c8.4,4.2,17.9,4.2,27.4-1.1l1684.5-810.7
		c8.4-4.2,14.7-11.6,16.8-21.1l414.8-1822.4C9963.9-1746.7,9961.8-1756.2,9955.5-1763.6z M6647.7-752.9l106.3-467.5l167.4-285.3
		c11.6,235.8,36.8,480.1,57.9,658L6647.7-752.9z M7577.1-419.1l-13.7,79h-441.1l-13.7-79l-6.3-41.1h481.1L7577.1-419.1z M7608.7-576
		h-533.8c0,0-186.4-1224.4-53.7-1602.4c42.1-121.1,192.7-401.1,320.1-401.1c128.4,0,277.9,280.1,320.1,401.1
		C7794-1800.4,7608.7-576,7608.7-576z M7958.3-919.2h-104.2h-8.4H7732h-20c31.6-274.8,66.3-663.3,53.7-956h20h59h9.5h50.5h8.4
		c-12.6,292.7,22.1,681.2,53.7,956L7958.3-919.2L7958.3-919.2z M8574.2-419.1l-13.7,79h-441.2l-13.7-79l-6.3-41.1h481.1
		L8574.2-419.1z M8070.9-576c0,0-186.4-1224.4-53.7-1602.4c42.1-121.1,192.7-401.1,320.1-401.1c127.4,0,279,280.1,321.1,401.1
		c132.7,378-53.7,1602.4-53.7,1602.4L8070.9-576L8070.9-576z M8703.5-844.7c20-181.1,46.3-427.4,57.9-666.4l167.4,289.5l106.3,472.7
		L8703.5-844.7z"/>
	<circle class="st0" cx="8612.1" cy="-1909.1" r="26.3"/>
</g>
<g id="fire_copy_2_2_">
	<path class="st1" d="M8240.4-261.5h206.4c17.9,0,28.4,19,20,34.7L8362.6-33.1c-8.4,16.8-32.6,15.8-41.1,0l-102.1-193.7
		C8212-243.6,8222.5-261.5,8240.4-261.5z"/>
	<path class="st1" d="M7243.4-261.5h206.4c17.9,0,28.4,19,20,34.7L7365.6-33.1c-8.4,16.8-32.6,15.8-41.1,0l-102.2-193.6
		C7215-243.6,7226.5-261.5,7243.4-261.5z"/>
	<path class="st1" d="M8750-3349.4H6904c-12.6,0-22.8-14.8-22.8-33v-132.2c0-18.2,10.2-33,22.8-33h1853.7c12.6,0,22.8,14.8,22.8,33
		v119.5C8781.6-3369.2,8766.8-3349.4,8750-3349.4z"/>
</g>
</svg>
