<?xml version="1.0" encoding="utf-8"?>
<!-- Generator: Adobe Illustrator 19.0.0, SVG Export Plug-In . SVG Version: 6.00 Build 0)  -->
<!DOCTYPE svg PUBLIC "-//W3C//DTD SVG 1.1//EN" "http://www.w3.org/Graphics/SVG/1.1/DTD/svg11.dtd">
<svg version="1.1" id="Layer_1_copy_2" xmlns="http://www.w3.org/2000/svg" xmlns:xlink="http://www.w3.org/1999/xlink" x="0px"
	 y="0px" viewBox="5387 -3968.2 11498 4748.1" style="enable-background:new 5387 -3968.2 11498 4748.1;" xml:space="preserve">
<style type="text/css">
	.st0{fill:#041047;}
	.st1{fill:#F90606;}
</style>
<g>
	<circle class="st0" cx="6850.7" cy="-2268.8" r="26.3"/>
	<circle class="st0" cx="6850.7" cy="-2108.5" r="26.3"/>
	<circle class="st0" cx="8396.3" cy="-1948.2" r="26.3"/>
	<circle class="st0" cx="6850.7" cy="-1948.2" r="26.3"/>
	<circle class="st0" cx="8396.3" cy="-2108.5" r="26.3"/>
	<path class="st0" d="M9739.7-2123.3L8574.2-3584.6c-5.3-7.4-14.7-11.6-24.2-11.6H6680.2c-9.5,0-17.9,4.2-24.2,11.6L5491.5-2123.3
		c-6.3,7.4-8.4,16.8-6.3,26.3l415.9,1823.5c2.1,9.5,8.4,16.8,16.8,21.1l1684.5,810.7c8.4,4.2,17.9,4.2,27.4-1.1l1684.5-810.7
		c8.4-4.2,14.7-11.6,16.8-21.1L9745.9-2097C9748.1-2106.4,9746-2115.9,9739.7-2123.3z M6431.9-1112.6l106.3-467.5l167.4-285.3
		c11.6,235.8,36.8,480.1,57.9,658L6431.9-1112.6z M7361.3-778.8l-13.7,79h-441.1l-13.7-79l-6.3-41.1h481.1L7361.3-778.8z
		 M7392.9-935.7h-533.8c0,0-186.4-1224.4-53.7-1602.4c42.1-121.1,192.7-401.1,320.1-401.1c128.4,0,277.9,280.1,320.1,401.1
		C7578.2-2160.1,7392.9-935.7,7392.9-935.7z M7742.5-1278.9h-104.2h-8.4h-113.7h-20c31.6-274.8,66.3-663.3,53.7-956h20h59h9.5h50.5
		h8.4c-12.6,292.7,22.1,681.2,53.7,956L7742.5-1278.9L7742.5-1278.9z M8358.4-778.8l-13.7,79h-441.2l-13.7-79l-6.3-41.1h481.1
		L8358.4-778.8z M7855.1-935.7c0,0-186.4-1224.4-53.7-1602.4c42.1-121.1,192.7-401.1,320.1-401.1c127.4,0,279,280.1,321.1,401.1
		c132.7,378-53.7,1602.4-53.7,1602.4L7855.1-935.7L7855.1-935.7z M8487.7-1204.4c20-181.1,46.3-427.4,57.9-666.4l167.4,289.5
		l106.3,472.7L8487.7-1204.4z"/>
	<circle class="st0" cx="8396.3" cy="-2268.8" r="26.3"/>
</g>
<g id="fire_copy_2_2_">
	<path class="st1" d="M8024.6-621.2H8231c17.9,0,28.4,19,20,34.7l-104.2,193.7c-8.4,16.8-32.6,15.8-41.1,0l-102.1-193.7
		C7996.2-603.3,8006.7-621.2,8024.6-621.2z"/>
	<path class="st1" d="M7027.6-621.2H7234c17.9,0,28.4,19,20,34.7l-104.2,193.7c-8.4,16.8-32.6,15.8-41.1,0l-102.2-193.6
		C6999.2-603.3,7010.7-621.2,7027.6-621.2z"/>
	<path class="st1" d="M8534.2-3709.1h-1846c-12.6,0-22.8-14.8-22.8-33v-132.2c0-18.2,10.2-33,22.8-33h1853.7
		c12.6,0,22.8,14.8,22.8,33v119.5C8565.8-3728.9,8551-3709.1,8534.2-3709.1z"/>
</g>
<g>
	<path class="st0" d="M11642.4-257.6H10483v-2705.3h1159.4v386.5h-772.9v695.6h579.7v386.5h-579.7v850.2h772.9V-257.6z"/>
	<path class="st0" d="M13331.2-644.1c0,212.6-173.9,386.5-386.5,386.5h-966.2v-2705.3h966.2c212.6,0,386.5,173.9,386.5,386.5V-644.1
		z M12944.7-644.1v-1932.3H12365v1932.3L12944.7-644.1L12944.7-644.1z"/>
	<path class="st0" d="M15070.3-644.1c0,212.6-173.9,386.5-386.5,386.5h-579.7c-212.6,0-386.5-173.9-386.5-386.5v-1932.3
		c0-212.6,173.9-386.5,386.5-386.5h579.7c212.6,0,386.5,173.9,386.5,386.5v386.5h-386.5v-386.5h-579.7v1932.3h579.7v-657h-289.9
		v-386.4h676.3L15070.3-644.1L15070.3-644.1z"/>
	<path class="st0" d="M16616.2-257.6h-1159.4v-2705.3h1159.4v386.5h-772.9v695.6h579.7v386.5h-579.7v850.2h772.9V-257.6
		L16616.2-257.6z"/>
</g>
</svg>
