<?xml version="1.0" encoding="utf-8"?>
<!-- Generator: Adobe Illustrator 19.0.0, SVG Export Plug-In . SVG Version: 6.00 Build 0)  -->
<!DOCTYPE svg PUBLIC "-//W3C//DTD SVG 1.1//EN" "http://www.w3.org/Graphics/SVG/1.1/DTD/svg11.dtd">
<svg version="1.1" id="Layer_1" xmlns="http://www.w3.org/2000/svg" xmlns:xlink="http://www.w3.org/1999/xlink" x="0px" y="0px"
	 viewBox="-599 101 400 400" style="enable-background:new -599 101 400 400;" xml:space="preserve">
<style type="text/css">
	.st0{fill:#F90606;}
</style>
<g>
	<path class="st0" d="M-205.5,154.8l-45.5-45.5c-3.6-3.6-8.9-5.6-13.7-5.6c-4.8,0-10.1,2-13.7,5.6L-477,307.9
		c-1.6,1.6-2.8,3.6-4,5.6l-40.3,85.8c-3.6,7.7-2,16.5,4,22.2c3.6,3.6,8.9,5.6,13.7,5.6c2.8,0,5.6-0.4,8.5-2l85.8-40.3
		c2-0.8,4-2.4,5.6-4l198.6-198.6C-197.8,175-197.8,162.5-205.5,154.8z M-425.5,367.1l-70.8,32.7l34.7-71.8l141.4-142.4l38.1,38.1
		L-425.5,367.1z M-253.9,195.5l-37.7-34.7l26.9-29.9l37.7,38.1L-253.9,195.5z"/>
	<path class="st0" d="M-238.3,277.3c-10.9,0-14.7,8.9-14.7,19.7v134.2v14.5v22.1h-314.5V152.9h26.5h14.9h146.2
		c10.9,0,19.7-2.9,19.7-13.7c0-10.9-8.9-15.7-19.7-15.7h-147.9h-12.9h-16.5c-36.1,0-39.1,0.6-39.1,39.1v294.9
		c0,36.6,0.3,39.1,39.1,39.1h294.5c38,0,39.1-1.2,39.1-39.1v-12.1v-14.5V296.7C-223.6,285.8-227.5,277.3-238.3,277.3z"/>
</g>
</svg>
