<?xml version="1.0" encoding="utf-8"?>
<!-- Generator: Adobe Illustrator 19.0.0, SVG Export Plug-In . SVG Version: 6.00 Build 0)  -->
<!DOCTYPE svg PUBLIC "-//W3C//DTD SVG 1.1//EN" "http://www.w3.org/Graphics/SVG/1.1/DTD/svg11.dtd">
<svg version="1.1" id="Layer_1" xmlns="http://www.w3.org/2000/svg" xmlns:xlink="http://www.w3.org/1999/xlink" x="0px" y="0px"
	 viewBox="-449 251 100 100" style="enable-background:new -449 251 100 100;" xml:space="preserve">
<style type="text/css">
	.st0{fill:#F90606;}
</style>
<g>
	<polygon class="st0" points="-391,276.5 -398.2,276.3 -398.6,297.8 -420.5,320 -415.4,325 -391.5,300.8 	"/>
	<path class="st0" d="M-352.8,283.7c-6.6-17.5-23.5-30.1-43.3-30.5c-8.6-0.1-16.6,2-23.6,5.9c-8.7,4.7-15.8,12-20.3,21l-2-9.5
		l-7,1.5l4.6,21.9l5.4,2.3l18.5-11.6l-3.8-6.1l-9.2,5.7c3.5-8,9.5-14.6,17.1-18.8c5.7-3.1,12.3-4.9,19.2-4.9
		c16.7,0,31.1,10.1,37.3,24.6c0.7,1.8,1.4,3.6,1.8,5.5h0.1c0.9,3.3,1.4,6.9,1.4,10.5c0,22.4-18.2,40.6-40.6,40.6
		c-18.9,0-34.8-13-39.3-30.5l-6.6,3c5.7,20,24.1,34.7,45.9,34.7c26.3,0,47.7-21.4,47.7-47.7C-349.5,295.1-350.7,289.1-352.8,283.7z"
		/>
</g>
</svg>
