<?xml version="1.0" encoding="utf-8"?>
<!-- Generator: Adobe Illustrator 19.0.0, SVG Export Plug-In . SVG Version: 6.00 Build 0)  -->
<!DOCTYPE svg PUBLIC "-//W3C//DTD SVG 1.1//EN" "http://www.w3.org/Graphics/SVG/1.1/DTD/svg11.dtd">
<svg version="1.1" id="Layer_1" xmlns="http://www.w3.org/2000/svg" xmlns:xlink="http://www.w3.org/1999/xlink" x="0px" y="0px"
	 viewBox="-479 281 40 40" style="enable-background:new -479 281 40 40;" xml:space="preserve">
<style type="text/css">
	.st0{fill:none;stroke:#F90606;stroke-width:2;stroke-linecap:round;stroke-linejoin:round;stroke-miterlimit:10;}
</style>
<g>
	<circle class="st0" cx="-459.3" cy="293.9" r="4.5"/>
	<path class="st0" d="M-450.8,306.4c0-2.8-1.4-5.3-3.5-6.9c-1.1,1.5-2.9,2.5-5,2.5s-3.9-1-5-2.5c-2.1,1.5-3.5,4.1-3.5,6.9
		c0,0.3,0,6.4,0,6.7h17C-450.8,312.8-450.8,306.7-450.8,306.4z"/>
	<circle class="st0" cx="-471.4" cy="296.3" r="3.4"/>
	<path class="st0" d="M-466.8,302.1c-0.3-0.3-0.5-0.5-0.8-0.7c-0.9,1.2-2.2,1.9-3.8,1.9c-1.6,0-2.9-0.8-3.8-1.9
		c-1.6,1.2-2.7,3.1-2.7,5.2c0,0.2,0,3.3,0,3.5h8.8h1.1"/>
	<circle class="st0" cx="-447.2" cy="296.3" r="3.4"/>
	<path class="st0" d="M-451.8,302.1c0.3-0.3,0.5-0.5,0.8-0.7c0.9,1.2,2.2,1.9,3.8,1.9c1.6,0,2.9-0.8,3.8-1.9
		c1.6,1.2,2.7,3.1,2.7,5.2c0,0.2,0,3.3,0,3.5h-8.8h-1.1"/>
</g>
</svg>
